<?xml version="1.0" standalone="no"?>
<svg xmlns:xlink="http://www.w3.org/1999/xlink" id="wave" style="transform:rotate(180deg); transition: 0.3s" viewBox="0 0 1440 120" version="1.1" xmlns="http://www.w3.org/2000/svg"><defs><linearGradient id="sw-gradient-0" x1="0" x2="0" y1="1" y2="0"><stop stop-color="rgba(255, 249, 234, 1)" offset="0%"/><stop stop-color="rgba(255, 249, 234, 1)" offset="100%"/></linearGradient></defs><path style="transform:translate(0, 0px); opacity:1" fill="url(#sw-gradient-0)" d="M0,96L30,86C60,76,120,56,180,54C240,52,300,68,360,80C420,92,480,100,540,104C600,108,660,108,720,96C780,84,840,60,900,52C960,44,1020,52,1080,48C1140,44,1200,28,1260,30C1320,32,1380,52,1440,62C1500,72,1560,72,1620,70C1680,68,1740,64,1800,70C1860,76,1920,92,1980,96C2040,100,2100,92,2160,82C2220,72,2280,60,2340,60C2400,60,2460,72,2520,64C2580,56,2640,28,2700,22C2760,16,2820,32,2880,36C2940,40,3000,32,3060,28C3120,24,3180,24,3240,38C3300,52,3360,80,3420,86C3480,92,3540,76,3600,70C3660,64,3720,68,3780,76C3840,84,3900,96,3960,100C4020,104,4080,100,4140,100C4200,100,4260,104,4290,106L4320,108L4320,120L4290,120C4260,120,4200,120,4140,120C4080,120,4020,120,3960,120C3900,120,3840,120,3780,120C3720,120,3660,120,3600,120C3540,120,3480,120,3420,120C3360,120,3300,120,3240,120C3180,120,3120,120,3060,120C3000,120,2940,120,2880,120C2820,120,2760,120,2700,120C2640,120,2580,120,2520,120C2460,120,2400,120,2340,120C2280,120,2220,120,2160,120C2100,120,2040,120,1980,120C1920,120,1860,120,1800,120C1740,120,1680,120,1620,120C1560,120,1500,120,1440,120C1380,120,1320,120,1260,120C1200,120,1140,120,1080,120C1020,120,960,120,900,120C840,120,780,120,720,120C660,120,600,120,540,120C480,120,420,120,360,120C300,120,240,120,180,120C120,120,60,120,30,120L0,120Z"/></svg>